<svg preserveAspectRatio="none" overflow="visible" style="display: block;" width="16" height="16" viewBox="0 0 16 16" fill="none" xmlns="http://www.w3.org/2000/svg">
<g id="Icon">
<path id="Vector" d="M10.668 5.33301C11.7288 5.33301 12.7463 5.75444 13.4964 6.50458C14.2465 7.25473 14.668 8.27214 14.668 9.33301V13.9997H12.0013V9.33301C12.0013 8.97939 11.8608 8.64025 11.6108 8.3902C11.3607 8.14015 11.0216 7.99967 10.668 7.99967C10.3143 7.99967 9.97521 8.14015 9.72516 8.3902C9.47511 8.64025 9.33464 8.97939 9.33464 9.33301V13.9997H6.66797V9.33301C6.66797 8.27214 7.0894 7.25473 7.83954 6.50458C8.58969 5.75444 9.6071 5.33301 10.668 5.33301Z" stroke="#0E0E0D" stroke-width="1.33333" stroke-linecap="round" stroke-linejoin="round"/>
<path id="Vector_2" d="M3.9987 6H1.33203V14H3.9987V6Z" stroke="#0E0E0D" stroke-width="1.33333" stroke-linecap="round" stroke-linejoin="round"/>
<path id="Vector_3" d="M2.66536 3.99967C3.40174 3.99967 3.9987 3.40272 3.9987 2.66634C3.9987 1.92996 3.40174 1.33301 2.66536 1.33301C1.92898 1.33301 1.33203 1.92996 1.33203 2.66634C1.33203 3.40272 1.92898 3.99967 2.66536 3.99967Z" stroke="#0E0E0D" stroke-width="1.33333" stroke-linecap="round" stroke-linejoin="round"/>
</g>
</svg>
