<svg preserveAspectRatio="none" overflow="visible" style="display: block;" width="48" height="48" viewBox="0 0 48 48" fill="none" xmlns="http://www.w3.org/2000/svg">
<g id="Group">
<path id="Vector" d="M23.9843 2.2515C35.9959 2.2605 45.726 12.0041 45.717 24.0157C45.708 36.0274 35.9644 45.7575 23.9528 45.7485C11.9479 45.7395 2.22001 36.0049 2.22001 24C2.23801 11.9899 11.9741 2.2605 23.9843 2.2515ZM23.9843 1.41286e-06C10.729 0.00900141 -0.00899435 10.7605 5.65333e-06 24.0157C0.00900565 37.271 10.7605 48.009 24.0158 48C37.2642 47.991 48 37.2485 48 24C47.9955 10.741 37.2432 -0.00449859 23.9843 1.41286e-06Z" fill="#FD5600"/>
<path id="Vector_2" d="M12.656 16.3854L16.3701 12.6711L35.3203 31.6206L31.6062 35.3349L12.656 16.3854Z" fill="#FD5600"/>
<path id="Vector_3" d="M12.6558 31.6158L31.6053 12.6656L35.3195 16.3797L16.37 35.3299L12.6558 31.6158Z" fill="#FD5600"/>
</g>
</svg>
